<svg width="16" height="16" viewBox="0 0 16 16">
   <path d="M 8,0.5 C 3.8568547,0.5 0.5,3.8568546 0.5,7.9999998 0.5,12.143145 3.8568547,15.5 8,15.5 c 4.143145,0 7.5,-3.356855 7.5,-7.5000002 C 15.5,3.8568546 12.143145,0.5 8,0.5 Z m 4.354838,8.3467742 c 0,0.1995969 -0.163306,0.3629027 -0.362902,0.3629027 H 9.2096779 v 2.7822581 c 0,0.199597 -0.1633058,0.362902 -0.3629027,0.362902 H 7.1532256 c -0.1995968,0 -0.3629027,-0.163302 -0.3629027,-0.362902 V 9.2096773 H 4.0080653 c -0.1995968,0 -0.3629027,-0.1633058 -0.3629027,-0.3629027 V 7.1532255 c 0,-0.1995968 0.1633059,-0.3629027 0.3629027,-0.3629027 H 6.7903229 V 4.0080641 c 0,-0.1995969 0.1633059,-0.3629027 0.3629027,-0.3629027 h 1.6935488 c 0.1995969,0 0.3629027,0.1633062 0.3629027,0.3629027 v 2.782258 h 2.7822579 c 0.199597,0 0.362902,0.1633058 0.362902,0.3629027 z" />
</svg>